<svg viewBox="0 0 512 512" height="40" xmlns="http://www.w3.org/2000/svg">
  <path fill="none" d="M-1-1h582v402H-1z"/>
  <g>
    <path fill="#fddb00" d="M256 0C150 0 64 86 64 192c0 133 173 308 181 315 6 7 16 7 22 0 8-7 181-182 181-315C448 86 362 0 256 0z"/>
    <path fill="#fff" d="M256 512c-4 0-8-2-11-5-8-7-181-182-181-315a192 192 0 1 1 384 0c0 133-173 308-181 315-3 3-7 5-11 5zm0-480c-88 0-160 72-160 160 0 102 122 240 160 281 38-41 160-179 160-281 0-88-72-160-160-160z"/>
    <text font-weight="bold" stroke-dasharray="2,2" stroke="#000" transform="matrix(15.76058 0 0 14.60587 -2925 -3852)" font-family="'Courier New', Courier, monospace" font-size="24" y="285" x="196" stroke-width="0">
      D
    </text>
  </g>
</svg>