<svg version="1" xmlns="http://www.w3.org/2000/svg" viewBox="0 0 512 512" height="40" preserveAspectRatio="xMidYMid meet">
  <path d="M256 0C150 0 64 86 64 192c0 133 173 308 181 315 6 7 16 7 22 0 8-7 181-182 181-315C448 86 362 0 256 0z" fill="#fddb00"/>
  <path d="M256 512c-4 0-8-2-11-5-8-7-181-182-181-315a192 192 0 1 1 384 0c0 133-173 308-181 315-3 3-7 5-11 5zm0-480c-88 0-160 72-160 160 0 102 122 240 160 281 38-41 160-179 160-281 0-88-72-160-160-160z" fill="#FDE64C"/>
  <g fill="#000000">
    <path d="M272 192h-64a16 16 0 1 1 0-32h64a16 16 0 1 0 0-32h-64a16 16 0 1 1 0-32h64a48 48 0 1 1 0 96z"/>
    <path d="M272 256h-64a16 16 0 1 1 0-32h64a16 16 0 1 0 0-32h-64a16 16 0 1 1 0-32h64a48 48 0 1 1 0 96z"/>
    <path d="M208 256c-9 0-16-7-16-16V112a16 16 0 1 1 32 0v128c0 9-7 16-16 16z"/>
  </g>
</svg>